
<svg xmlns="http://www.w3.org/2000/svg" xmlns:xlink="http://www.w3.org/1999/xlink" x="0px" y="0px"
	 viewBox="0 0 289.32 82.2" style="enable-background:new 0 0 289.32 82.2;" xml:space="preserve">
<g>
	<path d="M2.64,70.2c3.12,2.04,8.64,4.2,13.92,4.2c7.68,0,11.28-3.84,11.28-8.64c0-5.04-3-7.8-10.8-10.68
		C6.6,51.36,1.68,45.6,1.68,38.64c0-9.36,7.56-17.04,20.04-17.04c5.88,0,11.04,1.68,14.28,3.6l-2.64,7.68
		c-2.28-1.44-6.48-3.36-11.88-3.36c-6.24,0-9.72,3.6-9.72,7.92c0,4.8,3.48,6.96,11.04,9.84c10.08,3.84,15.24,8.88,15.24,17.52
		c0,10.2-7.92,17.4-21.72,17.4C9.96,82.2,4.08,80.64,0,78.24L2.64,70.2z"/>
	<path d="M57.48,53.88c0.24,14.28,9.36,20.16,19.92,20.16c7.56,0,12.12-1.32,16.08-3l1.8,7.56c-3.72,1.68-10.08,3.6-19.32,3.6
		c-17.88,0-28.56-11.76-28.56-29.28c0-17.52,10.32-31.32,27.24-31.32c18.96,0,24,16.68,24,27.36c0,2.16-0.24,3.84-0.36,4.92H57.48z
		 M88.44,46.32c0.12-6.72-2.76-17.16-14.64-17.16c-10.68,0-15.36,9.84-16.2,17.16H88.44z"/>
	<path d="M111.72,38.64c0-6-0.12-10.92-0.48-15.72h9.24l0.48,9.36h0.36c3.24-5.52,8.64-10.68,18.24-10.68
		c7.92,0,13.92,4.8,16.44,11.64h0.24c1.8-3.24,4.08-5.76,6.48-7.56c3.48-2.64,7.32-4.08,12.84-4.08c7.68,0,19.08,5.04,19.08,25.2V81
		h-10.32V48.12c0-11.16-4.08-17.88-12.6-17.88c-6,0-10.68,4.44-12.48,9.6c-0.48,1.44-0.84,3.36-0.84,5.28V81h-10.32V46.2
		c0-9.24-4.08-15.96-12.12-15.96c-6.6,0-11.4,5.28-13.08,10.56c-0.6,1.56-0.84,3.36-0.84,5.16V81h-10.32V38.64z"/>
	<path d="M223.56,6.6c0.12,3.6-2.52,6.48-6.72,6.48c-3.72,0-6.36-2.88-6.36-6.48c0-3.72,2.76-6.6,6.6-6.6
		C221.04,0,223.56,2.88,223.56,6.6z M211.8,81V22.92h10.56V81H211.8z"/>
	<path d="M239.88,38.64c0-6-0.12-10.92-0.48-15.72h9.36l0.6,9.6h0.24c2.88-5.52,9.6-10.92,19.2-10.92c8.04,0,20.52,4.8,20.52,24.72
		V81h-10.56V47.52c0-9.36-3.48-17.16-13.44-17.16c-6.96,0-12.36,4.92-14.16,10.8c-0.48,1.32-0.72,3.12-0.72,4.92V81h-10.56V38.64z"
		/>
</g>
</svg>
